<?xml version="1.0" encoding="utf-8"?>
<!-- Generator: Adobe Illustrator 19.0.0, SVG Export Plug-In . SVG Version: 6.00 Build 0)  -->
<svg version="1.1" id="Layer_1" xmlns="http://www.w3.org/2000/svg" xmlns:xlink="http://www.w3.org/1999/xlink" x="0px" y="0px"
	 viewBox="68.9 305.1 254 172" style="enable-background:new 68.9 305.1 254 172;" xml:space="preserve">
<style type="text/css">
	.st0{fill:#008043;}
	.st1{fill:#FFFFFF;}
	.st2{fill:#EFD900;}
</style>
<rect x="68.9" y="305.1" class="st0" width="254" height="172"/>
<path class="st1" d="M258.8,350.8l36,32.9l-6.4,0.1l-30.9-26.6l1.5,5.3l-17.3,2l9.4,5.8l-17.1-0.2l7.9,6.9l-22.9,1l-18.1,1.5
	l5.8-3.7l-41.8-30.4l2.9,7.2l-21.3,3.9l13,6.4l-20.6,2l10.6,7.9l-52.3,5l67.1-40.2l30.3,22l34.9-20.9l21.8,15.6L258.8,350.8
	L258.8,350.8z M197.6,361.8l14.9,10.9l34.6-16.4l-16.9-11.6l1,2.7l-10.8,2l6.2,3.9l-12.5,1.7l5.8,4.7L197.6,361.8z"/>
<path class="st2" d="M105.5,421.5v-36.6h28.1l-1.9,7.1l-16.5,0.1l0.1,7.7h14.3v7.2h-14.2v14.6h-9.9V421.5z M152.5,385.3H168
	c3.4,0,6,0.2,7.8,0.7c2.4,0.6,4.5,1.7,6.2,3.3c1.7,1.6,3,3.5,3.9,5.8s1.3,5.1,1.3,8.4c0,2.9-0.4,5.5-1.3,7.6c-1,2.6-1.9,4.7-3.8,6.3
	c-1.4,1.2-3.4,2.2-5.8,2.8c-1.8,0.5-4.3,0.8-7.3,0.8h-16.5V385.3L152.5,385.3z M176.5,396.8L176.5,396.8c-0.4-1.2-0.2-0.8-0.6-1
	c-1.1-1.8-2.8-3-5-3.2h-9.3v21.2h8.9c6-0.4,7.1-4.9,7-10.4v-1.9C177.5,399.8,177.1,398.2,176.5,396.8L176.5,396.8z M234.8,390
	L234.8,390L234.8,390v0.1l-0.1,0.1l-17.5,23.7H235v7.1h-29.9v-4.8l17.7-24h-15.7v-7.1h27.7V390L234.8,390z M256.3,421.2v-36.3H273
	c4.2,0,7.9,0.3,9.8,1c1.9,0.6,3.5,1.8,4.6,3.5c1.2,1.7,1.7,3.6,1.7,5.7c0,2.7-0.8,4.8-2.3,6.8c-1.2,1.5-2.6,2.6-6.1,3.1
	c0.1,0,5.8,8.7,6.1,9.1l4.8,7.1l-11.1,0.1l-9.2-15H265l-0.1,14.9H256.3L256.3,421.2z M265.1,399.9h4.9c3.8,0,6.2-0.1,7.2-0.4
	c0.9-0.3,1.3-0.4,1.9-1.2c0.5-0.7,0.8-1.6,0.8-2.7c0-1.2-0.4-1.8-1.1-2.6c-0.7-0.8-1.3-1-2.6-1.2c-0.6-0.1-2.6-0.1-5.8-0.1h-5.3
	L265.1,399.9L265.1,399.9z"/>
<path class="st2" d="M105.5,431.2h5.6c1.1,0,1.9,0,2.5,0.1c0.5,0.1,1,0.3,1.5,0.6c0.4,0.3,0.8,0.7,1.1,1.2s0.4,1,0.4,1.6
	c0,0.7-0.2,1.3-0.5,1.8c-0.4,0.6-0.8,1-1.4,1.2c0.9,0.2,1.5,0.7,2,1.3s0.7,1.3,0.7,2.1c0,0.6-0.1,1.3-0.4,1.9
	c-0.3,0.6-0.7,1.1-1.2,1.4c-0.5,0.4-1.1,0.6-1.9,0.7c-0.5,0-1.6,0.1-3.4,0.1h-4.8v-14H105.5z M108.3,433.5v3.3h1.9
	c1.1,0,1.8,0,2.1,0c0.5-0.1,0.9-0.2,1.1-0.5c0.3-0.3,0.4-0.6,0.4-1.1c0-0.4-0.1-0.8-0.4-1.1c-0.2-0.3-0.6-0.4-1.1-0.5
	c-0.3,0-1.1,0-2.4,0L108.3,433.5L108.3,433.5z M108.3,439.1v3.8h2.6c1,0,1.7,0,1.9-0.1c0.4-0.1,0.8-0.3,1-0.6
	c0.3-0.3,0.4-0.7,0.4-1.2c0-0.4-0.1-0.8-0.3-1.1c-0.2-0.3-0.5-0.5-0.9-0.6c-0.4-0.1-1.2-0.2-2.5-0.2L108.3,439.1L108.3,439.1z
	 M132.4,445.2h-3.1l-1.2-3.2h-5.7l-1.2,3.2h-3l5.5-14.1h3L132.4,445.2L132.4,445.2z M127.1,439.7l-1.9-5.2l-1.9,5.2H127.1
	L127.1,439.7z M122,430.4l2-2.8h2.5l2,2.8h-2.2l-1.1-1.4l-1,1.4H122L122,430.4z M133.9,445.2v-14.1h6c1.5,0,2.6,0.1,3.3,0.4
	c0.7,0.3,1.2,0.7,1.6,1.3c0.4,0.6,0.6,1.4,0.6,2.2c0,1.1-0.3,1.9-0.9,2.6c-0.6,0.7-1.5,1.1-2.8,1.3c0.6,0.4,1.1,0.8,1.5,1.2
	c0.4,0.4,0.9,1.2,1.6,2.3l1.7,2.7h-3.4L141,442c-0.7-1.1-1.2-1.8-1.5-2.1s-0.6-0.5-0.9-0.6c-0.3-0.1-0.8-0.2-1.4-0.2h-0.6v5.9h-2.7
	V445.2z M136.8,437.1h2.1c1.4,0,2.2-0.1,2.6-0.2c0.3-0.1,0.6-0.3,0.8-0.6c0.2-0.3,0.3-0.6,0.3-1.1s-0.1-0.9-0.4-1.1
	c-0.3-0.3-0.6-0.5-1.1-0.6c-0.2,0-0.9,0-2.1,0h-2.2V437.1L136.8,437.1z M154.6,440.1v-2.4h6.1v5.6c-0.6,0.6-1.5,1.1-2.6,1.5
	s-2.3,0.7-3.4,0.7c-1.5,0-2.8-0.3-3.8-0.9c-1.1-0.6-1.9-1.5-2.5-2.7c-0.6-1.2-0.8-2.4-0.8-3.7c0-1.5,0.3-2.8,0.9-3.9
	c0.6-1.1,1.5-2,2.7-2.6c0.9-0.5,2-0.7,3.4-0.7c1.7,0,3.1,0.4,4.1,1.1s1.6,1.7,1.9,3l-2.8,0.5c-0.2-0.7-0.6-1.2-1.1-1.6
	s-1.2-0.6-2-0.6c-1.2,0-2.2,0.4-3,1.2c-0.7,0.8-1.1,2-1.1,3.5c0,1.7,0.4,2.9,1.1,3.8c0.7,0.8,1.7,1.3,2.9,1.3c0.6,0,1.2-0.1,1.8-0.3
	s1.1-0.5,1.5-0.8v-1.8h-3.3V440.1z M176.1,445.2H173l-1.2-3.2h-5.6l-1.2,3.2h-3l5.5-14.1h3L176.1,445.2L176.1,445.2z M170.9,439.7
	l-1.9-5.2l-1.9,5.2H170.9L170.9,439.7z M170.8,427.6h1.3c-0.1,0.9-0.4,1.6-0.9,2c-0.5,0.5-1.2,0.7-2.1,0.7s-1.5-0.2-2.1-0.7
	c-0.5-0.5-0.8-1.2-0.9-2h1.3c0,0.5,0.2,0.8,0.5,1s0.7,0.4,1.2,0.4s0.9-0.1,1.2-0.4C170.5,428.4,170.6,428.1,170.8,427.6L170.8,427.6
	z M177.5,431.2h2.8v7.6c0,1.2,0,2,0.1,2.4c0.1,0.6,0.4,1,0.9,1.4s1.1,0.5,1.9,0.5s1.4-0.2,1.8-0.5s0.7-0.7,0.7-1.2
	c0.1-0.5,0.1-1.3,0.1-2.4v-7.8h2.8v7.4c0,1.7-0.1,2.9-0.2,3.6c-0.2,0.7-0.4,1.3-0.8,1.8c-0.4,0.5-1,0.9-1.7,1.1
	c-0.7,0.3-1.6,0.4-2.7,0.4c-1.3,0-2.4-0.2-3.1-0.5c-0.7-0.3-1.2-0.7-1.6-1.2c-0.4-0.5-0.7-1-0.8-1.6c-0.2-0.8-0.3-2-0.3-3.6
	L177.5,431.2L177.5,431.2z M191.4,441.5v-2.7h5.3v2.7H191.4L191.4,441.5z M207.3,440.1l2.8,0.9c-0.4,1.5-1.1,2.7-2.1,3.4
	s-2.2,1.1-3.7,1.1c-1.9,0-3.4-0.6-4.6-1.9c-1.2-1.3-1.8-3-1.8-5.2c0-2.3,0.6-4.2,1.8-5.5c1.2-1.3,2.8-1.9,4.8-1.9
	c1.7,0,3.1,0.5,4.2,1.5c0.6,0.6,1.1,1.5,1.4,2.6l-2.8,0.7c-0.2-0.7-0.5-1.3-1-1.7c-0.5-0.4-1.2-0.6-1.9-0.6c-1,0-1.9,0.4-2.5,1.1
	c-0.6,0.7-1,2-1,3.6c0,1.8,0.3,3,1,3.8c0.6,0.8,1.5,1.1,2.5,1.1c0.8,0,1.4-0.2,1.9-0.7C206.8,441.8,207.1,441.1,207.3,440.1
	L207.3,440.1z M225.3,445.2h-3.1l-1.2-3.2h-5.6l-1.2,3.2h-3l5.5-14.1h3L225.3,445.2L225.3,445.2z M220.1,439.7l-1.9-5.2l-1.9,5.2
	H220.1L220.1,439.7z M219.8,427.6h1.3c-0.1,0.9-0.4,1.6-0.9,2c-0.5,0.5-1.2,0.7-2.1,0.7c-0.9,0-1.5-0.2-2.1-0.7
	c-0.5-0.5-0.8-1.2-0.9-2h1.3c0,0.5,0.2,0.8,0.5,1s0.7,0.4,1.2,0.4s0.9-0.1,1.2-0.4C219.6,428.4,219.8,428.1,219.8,427.6L219.8,427.6
	z M226.8,445.2v-14h2.8v11.6h7.1v2.4H226.8L226.8,445.2z M238.6,445.2v-14.1h2.8v14.1H238.6L238.6,445.2z M244.1,445.2v-14.1h4.3
	l2.6,9.6l2.5-9.6h4.3v14.1h-2.6v-11.1l-2.8,11.1h-2.7l-2.8-11.1v11.1H244.1L244.1,445.2z M273.3,445.2h-3.1L269,442h-5.6l-1.2,3.2
	h-3l5.5-14.1h3L273.3,445.2L273.3,445.2z M268,439.7l-1.9-5.2l-1.9,5.2H268L268,439.7z M274.8,445.2v-14.1h2.8l5.8,9.4v-9.4h2.6
	v14.1h-2.9l-5.7-9.2v9.2H274.8L274.8,445.2z M288.8,445.2v-14.1h2.8v14.1H288.8z"/>
</svg>
